<svg width="70" height="70" viewBox="0 0 70 70" fill="none" xmlns="http://www.w3.org/2000/svg">
<g clip-path="url(#clip0_203_9)">
<path d="M35 70C54.33 70 70 54.33 70 35C70 15.67 54.33 0 35 0C15.67 0 0 15.67 0 35C0 54.33 15.67 70 35 70Z" fill="#EC5E69"/>
<path d="M12.7676 30.8906V38H11.8252V30.8906H12.7676ZM15.7461 34.0889V34.8604H12.5625V34.0889H15.7461ZM16.2295 30.8906V31.6621H12.5625V30.8906H16.2295ZM21.8691 37.2334V38H18.1045V37.2334H21.8691ZM18.2949 30.8906V38H17.3525V30.8906H18.2949ZM21.3711 33.9473V34.7139H18.1045V33.9473H21.3711ZM21.8203 30.8906V31.6621H18.1045V30.8906H21.8203ZM25.668 31.5205L23.3145 38H22.3525L25.0625 30.8906H25.6826L25.668 31.5205ZM27.6406 38L25.2822 31.5205L25.2676 30.8906H25.8877L28.6074 38H27.6406ZM27.5186 35.3682V36.1396H23.5244V35.3682H27.5186ZM31.5518 30.8906V38H30.624V30.8906H31.5518ZM33.8369 30.8906V31.6621H28.3438V30.8906H33.8369ZM38.959 30.8906H39.8965V35.7002C39.8965 36.234 39.7777 36.6784 39.54 37.0332C39.3024 37.388 38.9867 37.6549 38.5928 37.834C38.2021 38.0098 37.7773 38.0977 37.3184 38.0977C36.8366 38.0977 36.4004 38.0098 36.0098 37.834C35.6224 37.6549 35.3148 37.388 35.0869 37.0332C34.8623 36.6784 34.75 36.234 34.75 35.7002V30.8906H35.6826V35.7002C35.6826 36.0713 35.751 36.3773 35.8877 36.6182C36.0244 36.859 36.2148 37.0381 36.459 37.1553C36.7064 37.2725 36.9928 37.3311 37.3184 37.3311C37.6471 37.3311 37.9336 37.2725 38.1777 37.1553C38.4251 37.0381 38.6172 36.859 38.7539 36.6182C38.8906 36.3773 38.959 36.0713 38.959 35.7002V30.8906ZM41.376 30.8906H43.7295C44.2633 30.8906 44.7142 30.972 45.082 31.1348C45.4531 31.2975 45.7347 31.5384 45.9268 31.8574C46.1221 32.1732 46.2197 32.5622 46.2197 33.0244C46.2197 33.3499 46.153 33.6478 46.0195 33.918C45.8893 34.1849 45.7005 34.4128 45.4531 34.6016C45.209 34.7871 44.916 34.9255 44.5742 35.0166L44.3105 35.1191H42.0986L42.0889 34.3525H43.7588C44.0973 34.3525 44.3789 34.2939 44.6035 34.1768C44.8281 34.0563 44.9974 33.8952 45.1113 33.6934C45.2253 33.4915 45.2822 33.2686 45.2822 33.0244C45.2822 32.751 45.2285 32.5117 45.1211 32.3066C45.0137 32.1016 44.8444 31.9437 44.6133 31.833C44.3854 31.7191 44.0908 31.6621 43.7295 31.6621H42.3184V38H41.376V30.8906ZM45.5312 38L43.8027 34.7773L44.7842 34.7725L46.5371 37.9414V38H45.5312ZM52.0547 37.2334V38H48.29V37.2334H52.0547ZM48.4805 30.8906V38H47.5381V30.8906H48.4805ZM51.5566 33.9473V34.7139H48.29V33.9473H51.5566ZM52.0059 30.8906V31.6621H48.29V30.8906H52.0059ZM55.1455 38H53.6611L53.6709 37.2334H55.1455C55.6533 37.2334 56.0765 37.1276 56.415 36.916C56.7536 36.7012 57.0075 36.4017 57.1768 36.0176C57.3493 35.6302 57.4355 35.1777 57.4355 34.6602V34.2256C57.4355 33.8187 57.3867 33.4574 57.2891 33.1416C57.1914 32.8226 57.0482 32.554 56.8594 32.3359C56.6706 32.1146 56.4395 31.9469 56.166 31.833C55.8958 31.7191 55.585 31.6621 55.2334 31.6621H53.6318V30.8906H55.2334C55.6989 30.8906 56.1237 30.9688 56.5078 31.125C56.8919 31.278 57.2223 31.501 57.499 31.7939C57.779 32.0837 57.9938 32.4352 58.1436 32.8486C58.2933 33.2588 58.3682 33.721 58.3682 34.2354V34.6602C58.3682 35.1745 58.2933 35.6383 58.1436 36.0518C57.9938 36.4619 57.7773 36.8118 57.4941 37.1016C57.2142 37.3913 56.8757 37.6143 56.4785 37.7705C56.0846 37.9235 55.6403 38 55.1455 38ZM54.1641 30.8906V38H53.2217V30.8906H54.1641Z" fill="white"/>
</g>
<defs>
<clipPath id="clip0_203_9">
<rect width="70" height="70" fill="white"/>
</clipPath>
</defs>
</svg>
