<svg width="70" height="70" viewBox="0 0 70 70" fill="none" xmlns="http://www.w3.org/2000/svg">
<g clip-path="url(#clip0_210_2)">
<path d="M70 35C70 54.33 54.33 70 35 70C15.67 70 0 54.33 0 35C0 15.67 15.67 0 35 0C54.33 0 70 15.67 70 35Z" fill="#FBD055"/>
<path d="M24.1367 31.2334V32H20.582V31.2334H24.1367ZM20.7676 24.8906V32H19.8252V24.8906H20.7676ZM27.9453 25.5205L25.5918 32H24.6299L27.3398 24.8906H27.96L27.9453 25.5205ZM29.918 32L27.5596 25.5205L27.5449 24.8906H28.165L30.8848 32H29.918ZM29.7959 29.3682V30.1396H25.8018V29.3682H29.7959ZM35.626 30.2031C35.626 30.0371 35.5999 29.8906 35.5479 29.7637C35.499 29.6335 35.4111 29.5163 35.2842 29.4121C35.1605 29.3079 34.988 29.2087 34.7666 29.1143C34.5485 29.0199 34.2718 28.9238 33.9365 28.8262C33.585 28.722 33.2676 28.6064 32.9844 28.4795C32.7012 28.3493 32.4587 28.2012 32.2568 28.0352C32.055 27.8691 31.9004 27.6787 31.793 27.4639C31.6855 27.249 31.6318 27.0033 31.6318 26.7266C31.6318 26.4499 31.6888 26.1943 31.8027 25.96C31.9167 25.7256 32.0794 25.5221 32.291 25.3496C32.5059 25.1738 32.7614 25.0371 33.0576 24.9395C33.3538 24.8418 33.6842 24.793 34.0488 24.793C34.5827 24.793 35.0352 24.8955 35.4062 25.1006C35.7806 25.3024 36.0654 25.5677 36.2607 25.8965C36.4561 26.222 36.5537 26.5703 36.5537 26.9414H35.6162C35.6162 26.6745 35.5592 26.4385 35.4453 26.2334C35.3314 26.0251 35.1589 25.8623 34.9277 25.7451C34.6966 25.6247 34.4036 25.5645 34.0488 25.5645C33.7135 25.5645 33.4368 25.6149 33.2188 25.7158C33.0007 25.8167 32.8379 25.9535 32.7305 26.126C32.6263 26.2985 32.5742 26.4954 32.5742 26.7168C32.5742 26.8665 32.6051 27.0033 32.667 27.127C32.7321 27.2474 32.8314 27.3597 32.9648 27.4639C33.1016 27.568 33.2741 27.6641 33.4824 27.752C33.694 27.8398 33.9463 27.9245 34.2393 28.0059C34.6429 28.1198 34.9912 28.2467 35.2842 28.3867C35.5771 28.5267 35.818 28.6846 36.0068 28.8604C36.1989 29.0329 36.3405 29.2298 36.4316 29.4512C36.526 29.6693 36.5732 29.9167 36.5732 30.1934C36.5732 30.4831 36.5146 30.7451 36.3975 30.9795C36.2803 31.2139 36.1126 31.4141 35.8945 31.5801C35.6764 31.7461 35.4144 31.8747 35.1084 31.9658C34.8057 32.0537 34.4671 32.0977 34.0928 32.0977C33.764 32.0977 33.4401 32.0521 33.1211 31.9609C32.8053 31.8698 32.5173 31.7331 32.2568 31.5508C31.9997 31.3685 31.793 31.1439 31.6367 30.877C31.4837 30.6068 31.4072 30.2943 31.4072 29.9395H32.3447C32.3447 30.1836 32.3919 30.3936 32.4863 30.5693C32.5807 30.7419 32.7093 30.8851 32.8721 30.999C33.0381 31.113 33.2253 31.1976 33.4336 31.2529C33.6452 31.305 33.8649 31.3311 34.0928 31.3311C34.4215 31.3311 34.6999 31.2855 34.9277 31.1943C35.1556 31.1032 35.3281 30.973 35.4453 30.8037C35.5658 30.6344 35.626 30.4342 35.626 30.2031ZM40.4014 24.8906V32H39.4736V24.8906H40.4014ZM42.6865 24.8906V25.6621H37.1934V24.8906H42.6865ZM47.1104 28.001H47.7549C48.0706 28.001 48.3311 27.9489 48.5361 27.8447C48.7445 27.7373 48.8991 27.5924 49 27.4102C49.1042 27.2246 49.1562 27.0163 49.1562 26.7852C49.1562 26.5117 49.1107 26.2822 49.0195 26.0967C48.9284 25.9111 48.7917 25.7712 48.6094 25.6768C48.4271 25.5824 48.196 25.5352 47.916 25.5352C47.6621 25.5352 47.4375 25.5856 47.2422 25.6865C47.0501 25.7842 46.8988 25.9242 46.7881 26.1064C46.6807 26.2887 46.627 26.5036 46.627 26.751H45.7236C45.7236 26.3896 45.8148 26.0609 45.9971 25.7646C46.1794 25.4684 46.4349 25.2324 46.7637 25.0566C47.0957 24.8809 47.4798 24.793 47.916 24.793C48.3457 24.793 48.7217 24.8695 49.0439 25.0225C49.3662 25.1722 49.6169 25.3968 49.7959 25.6963C49.9749 25.9925 50.0645 26.362 50.0645 26.8047C50.0645 26.9837 50.0221 27.1758 49.9375 27.3809C49.8561 27.5827 49.7275 27.7715 49.5518 27.9473C49.3792 28.123 49.1546 28.2679 48.8779 28.3818C48.6012 28.4925 48.2692 28.5479 47.8818 28.5479H47.1104V28.001ZM47.1104 28.7432V28.2012H47.8818C48.3343 28.2012 48.7087 28.2549 49.0049 28.3623C49.3011 28.4697 49.5339 28.613 49.7031 28.792C49.8757 28.971 49.9961 29.168 50.0645 29.3828C50.1361 29.5944 50.1719 29.806 50.1719 30.0176C50.1719 30.3496 50.1149 30.6442 50.001 30.9014C49.8903 31.1585 49.7324 31.3766 49.5273 31.5557C49.3255 31.7347 49.0879 31.8698 48.8145 31.9609C48.541 32.0521 48.2432 32.0977 47.9209 32.0977C47.6117 32.0977 47.3203 32.0537 47.0469 31.9658C46.7767 31.8779 46.5374 31.751 46.3291 31.585C46.1208 31.4157 45.958 31.209 45.8408 30.9648C45.7236 30.7174 45.665 30.4359 45.665 30.1201H46.5684C46.5684 30.3675 46.6221 30.584 46.7295 30.7695C46.8402 30.9551 46.9964 31.0999 47.1982 31.2041C47.4033 31.305 47.6442 31.3555 47.9209 31.3555C48.1976 31.3555 48.4352 31.3083 48.6338 31.2139C48.8356 31.1162 48.9902 30.9697 49.0977 30.7744C49.2083 30.5791 49.2637 30.3333 49.2637 30.0371C49.2637 29.7409 49.2018 29.4984 49.0781 29.3096C48.9544 29.1175 48.7786 28.9759 48.5508 28.8848C48.3262 28.7904 48.0609 28.7432 47.7549 28.7432H47.1104ZM23.8926 39.8906H24.8301V44.7002C24.8301 45.234 24.7113 45.6784 24.4736 46.0332C24.236 46.388 23.9202 46.6549 23.5264 46.834C23.1357 47.0098 22.7109 47.0977 22.252 47.0977C21.7702 47.0977 21.334 47.0098 20.9434 46.834C20.556 46.6549 20.2484 46.388 20.0205 46.0332C19.7959 45.6784 19.6836 45.234 19.6836 44.7002V39.8906H20.6162V44.7002C20.6162 45.0713 20.6846 45.3773 20.8213 45.6182C20.958 45.859 21.1484 46.0381 21.3926 46.1553C21.64 46.2725 21.9264 46.3311 22.252 46.3311C22.5807 46.3311 22.8672 46.2725 23.1113 46.1553C23.3587 46.0381 23.5508 45.859 23.6875 45.6182C23.8242 45.3773 23.8926 45.0713 23.8926 44.7002V39.8906ZM31.7783 39.8906V47H30.8311L27.252 41.5166V47H26.3096V39.8906H27.252L30.8457 45.3887V39.8906H31.7783ZM34.459 39.8906V47H33.5166V39.8906H34.459ZM38.6533 39.8906V47H37.7256V39.8906H38.6533ZM40.9385 39.8906V40.6621H35.4453V39.8906H40.9385ZM45.7041 45.2031C45.7041 45.0371 45.6781 44.8906 45.626 44.7637C45.5771 44.6335 45.4893 44.5163 45.3623 44.4121C45.2386 44.3079 45.0661 44.2087 44.8447 44.1143C44.6266 44.0199 44.3499 43.9238 44.0146 43.8262C43.6631 43.722 43.3457 43.6064 43.0625 43.4795C42.7793 43.3493 42.5368 43.2012 42.335 43.0352C42.1331 42.8691 41.9785 42.6787 41.8711 42.4639C41.7637 42.249 41.71 42.0033 41.71 41.7266C41.71 41.4499 41.7669 41.1943 41.8809 40.96C41.9948 40.7256 42.1576 40.5221 42.3691 40.3496C42.584 40.1738 42.8395 40.0371 43.1357 39.9395C43.432 39.8418 43.7624 39.793 44.127 39.793C44.6608 39.793 45.1133 39.8955 45.4844 40.1006C45.8587 40.3024 46.1436 40.5677 46.3389 40.8965C46.5342 41.222 46.6318 41.5703 46.6318 41.9414H45.6943C45.6943 41.6745 45.6374 41.4385 45.5234 41.2334C45.4095 41.0251 45.237 40.8623 45.0059 40.7451C44.7747 40.6247 44.4818 40.5645 44.127 40.5645C43.7917 40.5645 43.515 40.6149 43.2969 40.7158C43.0788 40.8167 42.916 40.9535 42.8086 41.126C42.7044 41.2985 42.6523 41.4954 42.6523 41.7168C42.6523 41.8665 42.6833 42.0033 42.7451 42.127C42.8102 42.2474 42.9095 42.3597 43.043 42.4639C43.1797 42.568 43.3522 42.6641 43.5605 42.752C43.7721 42.8398 44.0244 42.9245 44.3174 43.0059C44.721 43.1198 45.0693 43.2467 45.3623 43.3867C45.6553 43.5267 45.8962 43.6846 46.085 43.8604C46.277 44.0329 46.4186 44.2298 46.5098 44.4512C46.6042 44.6693 46.6514 44.9167 46.6514 45.1934C46.6514 45.4831 46.5928 45.7451 46.4756 45.9795C46.3584 46.2139 46.1908 46.4141 45.9727 46.5801C45.7546 46.7461 45.4925 46.8747 45.1865 46.9658C44.8838 47.0537 44.5452 47.0977 44.1709 47.0977C43.8421 47.0977 43.5182 47.0521 43.1992 46.9609C42.8835 46.8698 42.5954 46.7331 42.335 46.5508C42.0778 46.3685 41.8711 46.1439 41.7148 45.877C41.5618 45.6068 41.4854 45.2943 41.4854 44.9395H42.4229C42.4229 45.1836 42.4701 45.3936 42.5645 45.5693C42.6589 45.7419 42.7874 45.8851 42.9502 45.999C43.1162 46.113 43.3034 46.1976 43.5117 46.2529C43.7233 46.305 43.943 46.3311 44.1709 46.3311C44.4997 46.3311 44.778 46.2855 45.0059 46.1943C45.2337 46.1032 45.4062 45.973 45.5234 45.8037C45.6439 45.6344 45.7041 45.4342 45.7041 45.2031Z" fill="black"/>
</g>
<defs>
<clipPath id="clip0_210_2">
<rect width="70" height="70" fill="white"/>
</clipPath>
</defs>
</svg>
