<svg width="70" height="70" viewBox="0 0 70 70" fill="none" xmlns="http://www.w3.org/2000/svg">
<g clip-path="url(#clip0_208_10)">
<path d="M70 35C70 54.33 54.33 70 35 70C15.67 70 0 54.33 0 35C0 15.67 15.67 0 35 0C54.33 0 70 15.67 70 35Z" fill="#FBD055"/>
<path d="M27.1367 30.2334V31H23.582V30.2334H27.1367ZM23.7676 23.8906V31H22.8252V23.8906H23.7676ZM30.9453 24.5205L28.5918 31H27.6299L30.3398 23.8906H30.96L30.9453 24.5205ZM32.918 31L30.5596 24.5205L30.5449 23.8906H31.165L33.8848 31H32.918ZM32.7959 28.3682V29.1396H28.8018V28.3682H32.7959ZM38.626 29.2031C38.626 29.0371 38.5999 28.8906 38.5479 28.7637C38.499 28.6335 38.4111 28.5163 38.2842 28.4121C38.1605 28.3079 37.988 28.2087 37.7666 28.1143C37.5485 28.0199 37.2718 27.9238 36.9365 27.8262C36.585 27.722 36.2676 27.6064 35.9844 27.4795C35.7012 27.3493 35.4587 27.2012 35.2568 27.0352C35.055 26.8691 34.9004 26.6787 34.793 26.4639C34.6855 26.249 34.6318 26.0033 34.6318 25.7266C34.6318 25.4499 34.6888 25.1943 34.8027 24.96C34.9167 24.7256 35.0794 24.5221 35.291 24.3496C35.5059 24.1738 35.7614 24.0371 36.0576 23.9395C36.3538 23.8418 36.6842 23.793 37.0488 23.793C37.5827 23.793 38.0352 23.8955 38.4062 24.1006C38.7806 24.3024 39.0654 24.5677 39.2607 24.8965C39.4561 25.222 39.5537 25.5703 39.5537 25.9414H38.6162C38.6162 25.6745 38.5592 25.4385 38.4453 25.2334C38.3314 25.0251 38.1589 24.8623 37.9277 24.7451C37.6966 24.6247 37.4036 24.5645 37.0488 24.5645C36.7135 24.5645 36.4368 24.6149 36.2188 24.7158C36.0007 24.8167 35.8379 24.9535 35.7305 25.126C35.6263 25.2985 35.5742 25.4954 35.5742 25.7168C35.5742 25.8665 35.6051 26.0033 35.667 26.127C35.7321 26.2474 35.8314 26.3597 35.9648 26.4639C36.1016 26.568 36.2741 26.6641 36.4824 26.752C36.694 26.8398 36.9463 26.9245 37.2393 27.0059C37.6429 27.1198 37.9912 27.2467 38.2842 27.3867C38.5771 27.5267 38.818 27.6846 39.0068 27.8604C39.1989 28.0329 39.3405 28.2298 39.4316 28.4512C39.526 28.6693 39.5732 28.9167 39.5732 29.1934C39.5732 29.4831 39.5146 29.7451 39.3975 29.9795C39.2803 30.2139 39.1126 30.4141 38.8945 30.5801C38.6764 30.7461 38.4144 30.8747 38.1084 30.9658C37.8057 31.0537 37.4671 31.0977 37.0928 31.0977C36.764 31.0977 36.4401 31.0521 36.1211 30.9609C35.8053 30.8698 35.5173 30.7331 35.2568 30.5508C34.9997 30.3685 34.793 30.1439 34.6367 29.877C34.4837 29.6068 34.4072 29.2943 34.4072 28.9395H35.3447C35.3447 29.1836 35.3919 29.3936 35.4863 29.5693C35.5807 29.7419 35.7093 29.8851 35.8721 29.999C36.0381 30.113 36.2253 30.1976 36.4336 30.2529C36.6452 30.305 36.8649 30.3311 37.0928 30.3311C37.4215 30.3311 37.6999 30.2855 37.9277 30.1943C38.1556 30.1032 38.3281 29.973 38.4453 29.8037C38.5658 29.6344 38.626 29.4342 38.626 29.2031ZM43.4014 23.8906V31H42.4736V23.8906H43.4014ZM45.6865 23.8906V24.6621H40.1934V23.8906H45.6865ZM53.4502 30.2578V31H48.7969V30.3506L51.126 27.7578C51.4124 27.4388 51.6338 27.1686 51.79 26.9473C51.9495 26.7227 52.0602 26.5225 52.1221 26.3467C52.1872 26.1676 52.2197 25.9854 52.2197 25.7998C52.2197 25.5654 52.1709 25.3538 52.0732 25.165C51.9788 24.973 51.8389 24.82 51.6533 24.7061C51.4678 24.5921 51.2432 24.5352 50.9795 24.5352C50.6637 24.5352 50.4001 24.597 50.1885 24.7207C49.9801 24.8411 49.8239 25.0104 49.7197 25.2285C49.6156 25.4466 49.5635 25.6973 49.5635 25.9805H48.6602C48.6602 25.5801 48.748 25.2139 48.9238 24.8818C49.0996 24.5498 49.36 24.2861 49.7051 24.0908C50.0501 23.8923 50.4749 23.793 50.9795 23.793C51.4287 23.793 51.8128 23.8727 52.1318 24.0322C52.4508 24.1885 52.695 24.4098 52.8643 24.6963C53.0368 24.9795 53.123 25.3115 53.123 25.6924C53.123 25.9007 53.0872 26.1123 53.0156 26.3271C52.9473 26.5387 52.8512 26.7503 52.7275 26.9619C52.6071 27.1735 52.4655 27.3818 52.3027 27.5869C52.1432 27.792 51.9723 27.9938 51.79 28.1924L49.8857 30.2578H53.4502ZM26.8926 38.8906H27.8301V43.7002C27.8301 44.234 27.7113 44.6784 27.4736 45.0332C27.236 45.388 26.9202 45.6549 26.5264 45.834C26.1357 46.0098 25.7109 46.0977 25.252 46.0977C24.7702 46.0977 24.334 46.0098 23.9434 45.834C23.556 45.6549 23.2484 45.388 23.0205 45.0332C22.7959 44.6784 22.6836 44.234 22.6836 43.7002V38.8906H23.6162V43.7002C23.6162 44.0713 23.6846 44.3773 23.8213 44.6182C23.958 44.859 24.1484 45.0381 24.3926 45.1553C24.64 45.2725 24.9264 45.3311 25.252 45.3311C25.5807 45.3311 25.8672 45.2725 26.1113 45.1553C26.3587 45.0381 26.5508 44.859 26.6875 44.6182C26.8242 44.3773 26.8926 44.0713 26.8926 43.7002V38.8906ZM34.7783 38.8906V46H33.8311L30.252 40.5166V46H29.3096V38.8906H30.252L33.8457 44.3887V38.8906H34.7783ZM37.459 38.8906V46H36.5166V38.8906H37.459ZM41.6533 38.8906V46H40.7256V38.8906H41.6533ZM43.9385 38.8906V39.6621H38.4453V38.8906H43.9385ZM48.7041 44.2031C48.7041 44.0371 48.6781 43.8906 48.626 43.7637C48.5771 43.6335 48.4893 43.5163 48.3623 43.4121C48.2386 43.3079 48.0661 43.2087 47.8447 43.1143C47.6266 43.0199 47.3499 42.9238 47.0146 42.8262C46.6631 42.722 46.3457 42.6064 46.0625 42.4795C45.7793 42.3493 45.5368 42.2012 45.335 42.0352C45.1331 41.8691 44.9785 41.6787 44.8711 41.4639C44.7637 41.249 44.71 41.0033 44.71 40.7266C44.71 40.4499 44.7669 40.1943 44.8809 39.96C44.9948 39.7256 45.1576 39.5221 45.3691 39.3496C45.584 39.1738 45.8395 39.0371 46.1357 38.9395C46.432 38.8418 46.7624 38.793 47.127 38.793C47.6608 38.793 48.1133 38.8955 48.4844 39.1006C48.8587 39.3024 49.1436 39.5677 49.3389 39.8965C49.5342 40.222 49.6318 40.5703 49.6318 40.9414H48.6943C48.6943 40.6745 48.6374 40.4385 48.5234 40.2334C48.4095 40.0251 48.237 39.8623 48.0059 39.7451C47.7747 39.6247 47.4818 39.5645 47.127 39.5645C46.7917 39.5645 46.515 39.6149 46.2969 39.7158C46.0788 39.8167 45.916 39.9535 45.8086 40.126C45.7044 40.2985 45.6523 40.4954 45.6523 40.7168C45.6523 40.8665 45.6833 41.0033 45.7451 41.127C45.8102 41.2474 45.9095 41.3597 46.043 41.4639C46.1797 41.568 46.3522 41.6641 46.5605 41.752C46.7721 41.8398 47.0244 41.9245 47.3174 42.0059C47.721 42.1198 48.0693 42.2467 48.3623 42.3867C48.6553 42.5267 48.8962 42.6846 49.085 42.8604C49.277 43.0329 49.4186 43.2298 49.5098 43.4512C49.6042 43.6693 49.6514 43.9167 49.6514 44.1934C49.6514 44.4831 49.5928 44.7451 49.4756 44.9795C49.3584 45.2139 49.1908 45.4141 48.9727 45.5801C48.7546 45.7461 48.4925 45.8747 48.1865 45.9658C47.8838 46.0537 47.5452 46.0977 47.1709 46.0977C46.8421 46.0977 46.5182 46.0521 46.1992 45.9609C45.8835 45.8698 45.5954 45.7331 45.335 45.5508C45.0778 45.3685 44.8711 45.1439 44.7148 44.877C44.5618 44.6068 44.4854 44.2943 44.4854 43.9395H45.4229C45.4229 44.1836 45.4701 44.3936 45.5645 44.5693C45.6589 44.7419 45.7874 44.8851 45.9502 44.999C46.1162 45.113 46.3034 45.1976 46.5117 45.2529C46.7233 45.305 46.943 45.3311 47.1709 45.3311C47.4997 45.3311 47.778 45.2855 48.0059 45.1943C48.2337 45.1032 48.4062 44.973 48.5234 44.8037C48.6439 44.6344 48.7041 44.4342 48.7041 44.2031Z" fill="black"/>
</g>
<defs>
<clipPath id="clip0_208_10">
<rect width="70" height="70" fill="white"/>
</clipPath>
</defs>
</svg>
