<svg width="70" height="70" viewBox="0 0 70 70" fill="none" xmlns="http://www.w3.org/2000/svg">
<g clip-path="url(#clip0_202_6)">
<path d="M35 70C54.33 70 70 54.33 70 35C70 15.67 54.33 0 35 0C15.67 0 0 15.67 0 35C0 54.33 15.67 70 35 70Z" fill="#FBD055"/>
<path d="M25.1367 31.2334V32H21.582V31.2334H25.1367ZM21.7676 24.8906V32H20.8252V24.8906H21.7676ZM28.9453 25.5205L26.5918 32H25.6299L28.3398 24.8906H28.96L28.9453 25.5205ZM30.918 32L28.5596 25.5205L28.5449 24.8906H29.165L31.8848 32H30.918ZM30.7959 29.3682V30.1396H26.8018V29.3682H30.7959ZM36.626 30.2031C36.626 30.0371 36.5999 29.8906 36.5479 29.7637C36.499 29.6335 36.4111 29.5163 36.2842 29.4121C36.1605 29.3079 35.988 29.2087 35.7666 29.1143C35.5485 29.0199 35.2718 28.9238 34.9365 28.8262C34.585 28.722 34.2676 28.6064 33.9844 28.4795C33.7012 28.3493 33.4587 28.2012 33.2568 28.0352C33.055 27.8691 32.9004 27.6787 32.793 27.4639C32.6855 27.249 32.6318 27.0033 32.6318 26.7266C32.6318 26.4499 32.6888 26.1943 32.8027 25.96C32.9167 25.7256 33.0794 25.5221 33.291 25.3496C33.5059 25.1738 33.7614 25.0371 34.0576 24.9395C34.3538 24.8418 34.6842 24.793 35.0488 24.793C35.5827 24.793 36.0352 24.8955 36.4062 25.1006C36.7806 25.3024 37.0654 25.5677 37.2607 25.8965C37.4561 26.222 37.5537 26.5703 37.5537 26.9414H36.6162C36.6162 26.6745 36.5592 26.4385 36.4453 26.2334C36.3314 26.0251 36.1589 25.8623 35.9277 25.7451C35.6966 25.6247 35.4036 25.5645 35.0488 25.5645C34.7135 25.5645 34.4368 25.6149 34.2188 25.7158C34.0007 25.8167 33.8379 25.9535 33.7305 26.126C33.6263 26.2985 33.5742 26.4954 33.5742 26.7168C33.5742 26.8665 33.6051 27.0033 33.667 27.127C33.7321 27.2474 33.8314 27.3597 33.9648 27.4639C34.1016 27.568 34.2741 27.6641 34.4824 27.752C34.694 27.8398 34.9463 27.9245 35.2393 28.0059C35.6429 28.1198 35.9912 28.2467 36.2842 28.3867C36.5771 28.5267 36.818 28.6846 37.0068 28.8604C37.1989 29.0329 37.3405 29.2298 37.4316 29.4512C37.526 29.6693 37.5732 29.9167 37.5732 30.1934C37.5732 30.4831 37.5146 30.7451 37.3975 30.9795C37.2803 31.2139 37.1126 31.4141 36.8945 31.5801C36.6764 31.7461 36.4144 31.8747 36.1084 31.9658C35.8057 32.0537 35.4671 32.0977 35.0928 32.0977C34.764 32.0977 34.4401 32.0521 34.1211 31.9609C33.8053 31.8698 33.5173 31.7331 33.2568 31.5508C32.9997 31.3685 32.793 31.1439 32.6367 30.877C32.4837 30.6068 32.4072 30.2943 32.4072 29.9395H33.3447C33.3447 30.1836 33.3919 30.3936 33.4863 30.5693C33.5807 30.7419 33.7093 30.8851 33.8721 30.999C34.0381 31.113 34.2253 31.1976 34.4336 31.2529C34.6452 31.305 34.8649 31.3311 35.0928 31.3311C35.4215 31.3311 35.6999 31.2855 35.9277 31.1943C36.1556 31.1032 36.3281 30.973 36.4453 30.8037C36.5658 30.6344 36.626 30.4342 36.626 30.2031ZM41.4014 24.8906V32H40.4736V24.8906H41.4014ZM43.6865 24.8906V25.6621H38.1934V24.8906H43.6865ZM47.9346 28.6162L47.2119 28.4307L47.5684 24.8906H51.2158V25.7256H48.335L48.1201 27.6592C48.2503 27.5843 48.4147 27.5143 48.6133 27.4492C48.8151 27.3841 49.0462 27.3516 49.3066 27.3516C49.6354 27.3516 49.93 27.4085 50.1904 27.5225C50.4508 27.6331 50.6722 27.7926 50.8545 28.001C51.04 28.2093 51.1816 28.46 51.2793 28.7529C51.377 29.0459 51.4258 29.373 51.4258 29.7344C51.4258 30.0762 51.3786 30.3903 51.2842 30.6768C51.193 30.9632 51.0547 31.2139 50.8691 31.4287C50.6836 31.6403 50.4492 31.8047 50.166 31.9219C49.8861 32.0391 49.5557 32.0977 49.1748 32.0977C48.8883 32.0977 48.6165 32.0586 48.3594 31.9805C48.1055 31.8991 47.8776 31.777 47.6758 31.6143C47.4772 31.4482 47.3145 31.2432 47.1875 30.999C47.0638 30.7516 46.9857 30.4619 46.9531 30.1299H47.8125C47.8516 30.3968 47.9297 30.6214 48.0469 30.8037C48.1641 30.986 48.3171 31.1243 48.5059 31.2188C48.6979 31.3099 48.9209 31.3555 49.1748 31.3555C49.3896 31.3555 49.5801 31.318 49.7461 31.2432C49.9121 31.1683 50.0521 31.0609 50.166 30.9209C50.2799 30.7809 50.3662 30.6117 50.4248 30.4131C50.4867 30.2145 50.5176 29.9915 50.5176 29.7441C50.5176 29.5195 50.4867 29.3112 50.4248 29.1191C50.363 28.9271 50.2702 28.7594 50.1465 28.6162C50.026 28.473 49.8779 28.3623 49.7021 28.2842C49.5264 28.2028 49.3245 28.1621 49.0967 28.1621C48.7939 28.1621 48.5645 28.2028 48.4082 28.2842C48.2552 28.3656 48.0973 28.4762 47.9346 28.6162ZM24.8926 39.8906H25.8301V44.7002C25.8301 45.234 25.7113 45.6784 25.4736 46.0332C25.236 46.388 24.9202 46.6549 24.5264 46.834C24.1357 47.0098 23.7109 47.0977 23.252 47.0977C22.7702 47.0977 22.334 47.0098 21.9434 46.834C21.556 46.6549 21.2484 46.388 21.0205 46.0332C20.7959 45.6784 20.6836 45.234 20.6836 44.7002V39.8906H21.6162V44.7002C21.6162 45.0713 21.6846 45.3773 21.8213 45.6182C21.958 45.859 22.1484 46.0381 22.3926 46.1553C22.64 46.2725 22.9264 46.3311 23.252 46.3311C23.5807 46.3311 23.8672 46.2725 24.1113 46.1553C24.3587 46.0381 24.5508 45.859 24.6875 45.6182C24.8242 45.3773 24.8926 45.0713 24.8926 44.7002V39.8906ZM32.7783 39.8906V47H31.8311L28.252 41.5166V47H27.3096V39.8906H28.252L31.8457 45.3887V39.8906H32.7783ZM35.459 39.8906V47H34.5166V39.8906H35.459ZM39.6533 39.8906V47H38.7256V39.8906H39.6533ZM41.9385 39.8906V40.6621H36.4453V39.8906H41.9385ZM46.7041 45.2031C46.7041 45.0371 46.6781 44.8906 46.626 44.7637C46.5771 44.6335 46.4893 44.5163 46.3623 44.4121C46.2386 44.3079 46.0661 44.2087 45.8447 44.1143C45.6266 44.0199 45.3499 43.9238 45.0146 43.8262C44.6631 43.722 44.3457 43.6064 44.0625 43.4795C43.7793 43.3493 43.5368 43.2012 43.335 43.0352C43.1331 42.8691 42.9785 42.6787 42.8711 42.4639C42.7637 42.249 42.71 42.0033 42.71 41.7266C42.71 41.4499 42.7669 41.1943 42.8809 40.96C42.9948 40.7256 43.1576 40.5221 43.3691 40.3496C43.584 40.1738 43.8395 40.0371 44.1357 39.9395C44.432 39.8418 44.7624 39.793 45.127 39.793C45.6608 39.793 46.1133 39.8955 46.4844 40.1006C46.8587 40.3024 47.1436 40.5677 47.3389 40.8965C47.5342 41.222 47.6318 41.5703 47.6318 41.9414H46.6943C46.6943 41.6745 46.6374 41.4385 46.5234 41.2334C46.4095 41.0251 46.237 40.8623 46.0059 40.7451C45.7747 40.6247 45.4818 40.5645 45.127 40.5645C44.7917 40.5645 44.515 40.6149 44.2969 40.7158C44.0788 40.8167 43.916 40.9535 43.8086 41.126C43.7044 41.2985 43.6523 41.4954 43.6523 41.7168C43.6523 41.8665 43.6833 42.0033 43.7451 42.127C43.8102 42.2474 43.9095 42.3597 44.043 42.4639C44.1797 42.568 44.3522 42.6641 44.5605 42.752C44.7721 42.8398 45.0244 42.9245 45.3174 43.0059C45.721 43.1198 46.0693 43.2467 46.3623 43.3867C46.6553 43.5267 46.8962 43.6846 47.085 43.8604C47.277 44.0329 47.4186 44.2298 47.5098 44.4512C47.6042 44.6693 47.6514 44.9167 47.6514 45.1934C47.6514 45.4831 47.5928 45.7451 47.4756 45.9795C47.3584 46.2139 47.1908 46.4141 46.9727 46.5801C46.7546 46.7461 46.4925 46.8747 46.1865 46.9658C45.8838 47.0537 45.5452 47.0977 45.1709 47.0977C44.8421 47.0977 44.5182 47.0521 44.1992 46.9609C43.8835 46.8698 43.5954 46.7331 43.335 46.5508C43.0778 46.3685 42.8711 46.1439 42.7148 45.877C42.5618 45.6068 42.4854 45.2943 42.4854 44.9395H43.4229C43.4229 45.1836 43.4701 45.3936 43.5645 45.5693C43.6589 45.7419 43.7874 45.8851 43.9502 45.999C44.1162 46.113 44.3034 46.1976 44.5117 46.2529C44.7233 46.305 44.943 46.3311 45.1709 46.3311C45.4997 46.3311 45.778 46.2855 46.0059 46.1943C46.2337 46.1032 46.4062 45.973 46.5234 45.8037C46.6439 45.6344 46.7041 45.4342 46.7041 45.2031Z" fill="black"/>
</g>
<defs>
<clipPath id="clip0_202_6">
<rect width="70" height="70" fill="white"/>
</clipPath>
</defs>
</svg>
