<svg width="70" height="70" viewBox="0 0 70 70" fill="none" xmlns="http://www.w3.org/2000/svg">
<g clip-path="url(#clip0_208_15)">
<path d="M70 35C70 54.33 54.33 70 35 70C15.67 70 0 54.33 0 35C0 15.67 15.67 0 35 0C54.33 0 70 15.67 70 35Z" fill="#FBD055"/>
<path d="M27.1367 30.2334V31H23.582V30.2334H27.1367ZM23.7676 23.8906V31H22.8252V23.8906H23.7676ZM30.9453 24.5205L28.5918 31H27.6299L30.3398 23.8906H30.96L30.9453 24.5205ZM32.918 31L30.5596 24.5205L30.5449 23.8906H31.165L33.8848 31H32.918ZM32.7959 28.3682V29.1396H28.8018V28.3682H32.7959ZM38.626 29.2031C38.626 29.0371 38.5999 28.8906 38.5479 28.7637C38.499 28.6335 38.4111 28.5163 38.2842 28.4121C38.1605 28.3079 37.988 28.2087 37.7666 28.1143C37.5485 28.0199 37.2718 27.9238 36.9365 27.8262C36.585 27.722 36.2676 27.6064 35.9844 27.4795C35.7012 27.3493 35.4587 27.2012 35.2568 27.0352C35.055 26.8691 34.9004 26.6787 34.793 26.4639C34.6855 26.249 34.6318 26.0033 34.6318 25.7266C34.6318 25.4499 34.6888 25.1943 34.8027 24.96C34.9167 24.7256 35.0794 24.5221 35.291 24.3496C35.5059 24.1738 35.7614 24.0371 36.0576 23.9395C36.3538 23.8418 36.6842 23.793 37.0488 23.793C37.5827 23.793 38.0352 23.8955 38.4062 24.1006C38.7806 24.3024 39.0654 24.5677 39.2607 24.8965C39.4561 25.222 39.5537 25.5703 39.5537 25.9414H38.6162C38.6162 25.6745 38.5592 25.4385 38.4453 25.2334C38.3314 25.0251 38.1589 24.8623 37.9277 24.7451C37.6966 24.6247 37.4036 24.5645 37.0488 24.5645C36.7135 24.5645 36.4368 24.6149 36.2188 24.7158C36.0007 24.8167 35.8379 24.9535 35.7305 25.126C35.6263 25.2985 35.5742 25.4954 35.5742 25.7168C35.5742 25.8665 35.6051 26.0033 35.667 26.127C35.7321 26.2474 35.8314 26.3597 35.9648 26.4639C36.1016 26.568 36.2741 26.6641 36.4824 26.752C36.694 26.8398 36.9463 26.9245 37.2393 27.0059C37.6429 27.1198 37.9912 27.2467 38.2842 27.3867C38.5771 27.5267 38.818 27.6846 39.0068 27.8604C39.1989 28.0329 39.3405 28.2298 39.4316 28.4512C39.526 28.6693 39.5732 28.9167 39.5732 29.1934C39.5732 29.4831 39.5146 29.7451 39.3975 29.9795C39.2803 30.2139 39.1126 30.4141 38.8945 30.5801C38.6764 30.7461 38.4144 30.8747 38.1084 30.9658C37.8057 31.0537 37.4671 31.0977 37.0928 31.0977C36.764 31.0977 36.4401 31.0521 36.1211 30.9609C35.8053 30.8698 35.5173 30.7331 35.2568 30.5508C34.9997 30.3685 34.793 30.1439 34.6367 29.877C34.4837 29.6068 34.4072 29.2943 34.4072 28.9395H35.3447C35.3447 29.1836 35.3919 29.3936 35.4863 29.5693C35.5807 29.7419 35.7093 29.8851 35.8721 29.999C36.0381 30.113 36.2253 30.1976 36.4336 30.2529C36.6452 30.305 36.8649 30.3311 37.0928 30.3311C37.4215 30.3311 37.6999 30.2855 37.9277 30.1943C38.1556 30.1032 38.3281 29.973 38.4453 29.8037C38.5658 29.6344 38.626 29.4342 38.626 29.2031ZM43.4014 23.8906V31H42.4736V23.8906H43.4014ZM45.6865 23.8906V24.6621H40.1934V23.8906H45.6865ZM26.8926 38.8906H27.8301V43.7002C27.8301 44.234 27.7113 44.6784 27.4736 45.0332C27.236 45.388 26.9202 45.6549 26.5264 45.834C26.1357 46.0098 25.7109 46.0977 25.252 46.0977C24.7702 46.0977 24.334 46.0098 23.9434 45.834C23.556 45.6549 23.2484 45.388 23.0205 45.0332C22.7959 44.6784 22.6836 44.234 22.6836 43.7002V38.8906H23.6162V43.7002C23.6162 44.0713 23.6846 44.3773 23.8213 44.6182C23.958 44.859 24.1484 45.0381 24.3926 45.1553C24.64 45.2725 24.9264 45.3311 25.252 45.3311C25.5807 45.3311 25.8672 45.2725 26.1113 45.1553C26.3587 45.0381 26.5508 44.859 26.6875 44.6182C26.8242 44.3773 26.8926 44.0713 26.8926 43.7002V38.8906ZM34.7783 38.8906V46H33.8311L30.252 40.5166V46H29.3096V38.8906H30.252L33.8457 44.3887V38.8906H34.7783ZM37.459 38.8906V46H36.5166V38.8906H37.459ZM41.6533 38.8906V46H40.7256V38.8906H41.6533ZM43.9385 38.8906V39.6621H38.4453V38.8906H43.9385Z" fill="black"/>
</g>
<defs>
<clipPath id="clip0_208_15">
<rect width="70" height="70" fill="white"/>
</clipPath>
</defs>
</svg>
