<svg width="70" height="70" viewBox="0 0 70 70" fill="none" xmlns="http://www.w3.org/2000/svg">
<g clip-path="url(#clip0_207_2)">
<path d="M70 35C70 54.33 54.33 70 35 70C15.67 70 0 54.33 0 35C0 15.67 15.67 0 35 0C54.33 0 70 15.67 70 35Z" fill="black"/>
<path d="M24.2988 28.2207V28.6699C24.2988 29.2038 24.2321 29.6823 24.0986 30.1055C23.9652 30.5286 23.7731 30.8883 23.5225 31.1846C23.2718 31.4808 22.9707 31.707 22.6191 31.8633C22.2708 32.0195 21.8802 32.0977 21.4473 32.0977C21.0273 32.0977 20.6416 32.0195 20.29 31.8633C19.9417 31.707 19.639 31.4808 19.3818 31.1846C19.1279 30.8883 18.931 30.5286 18.791 30.1055C18.651 29.6823 18.5811 29.2038 18.5811 28.6699V28.2207C18.5811 27.6868 18.6494 27.21 18.7861 26.79C18.9261 26.3669 19.123 26.0072 19.377 25.7109C19.6309 25.4115 19.932 25.1836 20.2803 25.0273C20.6318 24.8711 21.0176 24.793 21.4375 24.793C21.8704 24.793 22.2611 24.8711 22.6094 25.0273C22.9609 25.1836 23.262 25.4115 23.5127 25.7109C23.7666 26.0072 23.9603 26.3669 24.0938 26.79C24.2305 27.21 24.2988 27.6868 24.2988 28.2207ZM23.3662 28.6699V28.2109C23.3662 27.7878 23.3223 27.4134 23.2344 27.0879C23.1497 26.7624 23.0244 26.4889 22.8584 26.2676C22.6924 26.0462 22.4889 25.8786 22.248 25.7646C22.0104 25.6507 21.7402 25.5938 21.4375 25.5938C21.1445 25.5938 20.8792 25.6507 20.6416 25.7646C20.4072 25.8786 20.2054 26.0462 20.0361 26.2676C19.8701 26.4889 19.7415 26.7624 19.6504 27.0879C19.5592 27.4134 19.5137 27.7878 19.5137 28.2109V28.6699C19.5137 29.0964 19.5592 29.474 19.6504 29.8027C19.7415 30.1283 19.8717 30.4033 20.041 30.6279C20.2135 30.8493 20.417 31.0169 20.6514 31.1309C20.889 31.2448 21.1543 31.3018 21.4473 31.3018C21.7533 31.3018 22.0251 31.2448 22.2627 31.1309C22.5003 31.0169 22.7005 30.8493 22.8633 30.6279C23.0293 30.4033 23.1546 30.1283 23.2393 29.8027C23.3239 29.474 23.3662 29.0964 23.3662 28.6699ZM29.7773 24.8906H30.7148V29.7002C30.7148 30.234 30.596 30.6784 30.3584 31.0332C30.1208 31.388 29.805 31.6549 29.4111 31.834C29.0205 32.0098 28.5957 32.0977 28.1367 32.0977C27.6549 32.0977 27.2188 32.0098 26.8281 31.834C26.4408 31.6549 26.1331 31.388 25.9053 31.0332C25.6807 30.6784 25.5684 30.234 25.5684 29.7002V24.8906H26.501V29.7002C26.501 30.0713 26.5693 30.3773 26.7061 30.6182C26.8428 30.859 27.0332 31.0381 27.2773 31.1553C27.5247 31.2725 27.8112 31.3311 28.1367 31.3311C28.4655 31.3311 28.752 31.2725 28.9961 31.1553C29.2435 31.0381 29.4355 30.859 29.5723 30.6182C29.709 30.3773 29.7773 30.0713 29.7773 29.7002V24.8906ZM34.8213 24.8906V32H33.8936V24.8906H34.8213ZM37.1064 24.8906V25.6621H31.6133V24.8906H37.1064ZM45.9199 28.2207V28.6699C45.9199 29.2038 45.8532 29.6823 45.7197 30.1055C45.5863 30.5286 45.3942 30.8883 45.1436 31.1846C44.8929 31.4808 44.5918 31.707 44.2402 31.8633C43.8919 32.0195 43.5013 32.0977 43.0684 32.0977C42.6484 32.0977 42.2627 32.0195 41.9111 31.8633C41.5628 31.707 41.2601 31.4808 41.0029 31.1846C40.749 30.8883 40.5521 30.5286 40.4121 30.1055C40.2721 29.6823 40.2021 29.2038 40.2021 28.6699V28.2207C40.2021 27.6868 40.2705 27.21 40.4072 26.79C40.5472 26.3669 40.7441 26.0072 40.998 25.7109C41.252 25.4115 41.5531 25.1836 41.9014 25.0273C42.2529 24.8711 42.6387 24.793 43.0586 24.793C43.4915 24.793 43.8822 24.8711 44.2305 25.0273C44.582 25.1836 44.8831 25.4115 45.1338 25.7109C45.3877 26.0072 45.5814 26.3669 45.7148 26.79C45.8516 27.21 45.9199 27.6868 45.9199 28.2207ZM44.9873 28.6699V28.2109C44.9873 27.7878 44.9434 27.4134 44.8555 27.0879C44.7708 26.7624 44.6455 26.4889 44.4795 26.2676C44.3135 26.0462 44.11 25.8786 43.8691 25.7646C43.6315 25.6507 43.3613 25.5938 43.0586 25.5938C42.7656 25.5938 42.5003 25.6507 42.2627 25.7646C42.0283 25.8786 41.8265 26.0462 41.6572 26.2676C41.4912 26.4889 41.3626 26.7624 41.2715 27.0879C41.1803 27.4134 41.1348 27.7878 41.1348 28.2109V28.6699C41.1348 29.0964 41.1803 29.474 41.2715 29.8027C41.3626 30.1283 41.4928 30.4033 41.6621 30.6279C41.8346 30.8493 42.0381 31.0169 42.2725 31.1309C42.5101 31.2448 42.7754 31.3018 43.0684 31.3018C43.3743 31.3018 43.6462 31.2448 43.8838 31.1309C44.1214 31.0169 44.3216 30.8493 44.4844 30.6279C44.6504 30.4033 44.7757 30.1283 44.8604 29.8027C44.945 29.474 44.9873 29.0964 44.9873 28.6699ZM48.2734 24.8906V32H47.3311V24.8906H48.2734ZM51.252 28.0889V28.8604H48.0684V28.0889H51.252ZM51.7354 24.8906V25.6621H48.0684V24.8906H51.7354ZM22.6143 42.2031C22.6143 42.0371 22.5882 41.8906 22.5361 41.7637C22.4873 41.6335 22.3994 41.5163 22.2725 41.4121C22.1488 41.3079 21.9762 41.2087 21.7549 41.1143C21.5368 41.0199 21.2601 40.9238 20.9248 40.8262C20.5732 40.722 20.2559 40.6064 19.9727 40.4795C19.6895 40.3493 19.4469 40.2012 19.2451 40.0352C19.0433 39.8691 18.8887 39.6787 18.7812 39.4639C18.6738 39.249 18.6201 39.0033 18.6201 38.7266C18.6201 38.4499 18.6771 38.1943 18.791 37.96C18.9049 37.7256 19.0677 37.5221 19.2793 37.3496C19.4941 37.1738 19.7497 37.0371 20.0459 36.9395C20.3421 36.8418 20.6725 36.793 21.0371 36.793C21.571 36.793 22.0234 36.8955 22.3945 37.1006C22.7689 37.3024 23.0537 37.5677 23.249 37.8965C23.4443 38.222 23.542 38.5703 23.542 38.9414H22.6045C22.6045 38.6745 22.5475 38.4385 22.4336 38.2334C22.3197 38.0251 22.1471 37.8623 21.916 37.7451C21.6849 37.6247 21.3919 37.5645 21.0371 37.5645C20.7018 37.5645 20.4251 37.6149 20.207 37.7158C19.9889 37.8167 19.8262 37.9535 19.7188 38.126C19.6146 38.2985 19.5625 38.4954 19.5625 38.7168C19.5625 38.8665 19.5934 39.0033 19.6553 39.127C19.7204 39.2474 19.8197 39.3597 19.9531 39.4639C20.0898 39.568 20.2624 39.6641 20.4707 39.752C20.6823 39.8398 20.9346 39.9245 21.2275 40.0059C21.6312 40.1198 21.9795 40.2467 22.2725 40.3867C22.5654 40.5267 22.8063 40.6846 22.9951 40.8604C23.1872 41.0329 23.3288 41.2298 23.4199 41.4512C23.5143 41.6693 23.5615 41.9167 23.5615 42.1934C23.5615 42.4831 23.5029 42.7451 23.3857 42.9795C23.2686 43.2139 23.1009 43.4141 22.8828 43.5801C22.6647 43.7461 22.4027 43.8747 22.0967 43.9658C21.7939 44.0537 21.4554 44.0977 21.0811 44.0977C20.7523 44.0977 20.4284 44.0521 20.1094 43.9609C19.7936 43.8698 19.5055 43.7331 19.2451 43.5508C18.988 43.3685 18.7812 43.1439 18.625 42.877C18.472 42.6068 18.3955 42.2943 18.3955 41.9395H19.333C19.333 42.1836 19.3802 42.3936 19.4746 42.5693C19.569 42.7419 19.6976 42.8851 19.8604 42.999C20.0264 43.113 20.2135 43.1976 20.4219 43.2529C20.6335 43.305 20.8532 43.3311 21.0811 43.3311C21.4098 43.3311 21.6882 43.2855 21.916 43.1943C22.1439 43.1032 22.3164 42.973 22.4336 42.8037C22.554 42.6344 22.6143 42.4342 22.6143 42.2031ZM27.3896 36.8906V44H26.4619V36.8906H27.3896ZM29.6748 36.8906V37.6621H24.1816V36.8906H29.6748ZM36.0664 40.2207V40.6699C36.0664 41.2038 35.9997 41.6823 35.8662 42.1055C35.7327 42.5286 35.5407 42.8883 35.29 43.1846C35.0394 43.4808 34.7383 43.707 34.3867 43.8633C34.0384 44.0195 33.6478 44.0977 33.2148 44.0977C32.7949 44.0977 32.4092 44.0195 32.0576 43.8633C31.7093 43.707 31.4066 43.4808 31.1494 43.1846C30.8955 42.8883 30.6986 42.5286 30.5586 42.1055C30.4186 41.6823 30.3486 41.2038 30.3486 40.6699V40.2207C30.3486 39.6868 30.417 39.21 30.5537 38.79C30.6937 38.3669 30.8906 38.0072 31.1445 37.7109C31.3984 37.4115 31.6995 37.1836 32.0479 37.0273C32.3994 36.8711 32.7852 36.793 33.2051 36.793C33.638 36.793 34.0286 36.8711 34.377 37.0273C34.7285 37.1836 35.0296 37.4115 35.2803 37.7109C35.5342 38.0072 35.7279 38.3669 35.8613 38.79C35.998 39.21 36.0664 39.6868 36.0664 40.2207ZM35.1338 40.6699V40.2109C35.1338 39.7878 35.0898 39.4134 35.002 39.0879C34.9173 38.7624 34.792 38.4889 34.626 38.2676C34.46 38.0462 34.2565 37.8786 34.0156 37.7646C33.778 37.6507 33.5078 37.5938 33.2051 37.5938C32.9121 37.5938 32.6468 37.6507 32.4092 37.7646C32.1748 37.8786 31.973 38.0462 31.8037 38.2676C31.6377 38.4889 31.5091 38.7624 31.418 39.0879C31.3268 39.4134 31.2812 39.7878 31.2812 40.2109V40.6699C31.2812 41.0964 31.3268 41.474 31.418 41.8027C31.5091 42.1283 31.6393 42.4033 31.8086 42.6279C31.9811 42.8493 32.1846 43.0169 32.4189 43.1309C32.6566 43.2448 32.9219 43.3018 33.2148 43.3018C33.5208 43.3018 33.7926 43.2448 34.0303 43.1309C34.2679 43.0169 34.4681 42.8493 34.6309 42.6279C34.7969 42.4033 34.9222 42.1283 35.0068 41.8027C35.0915 41.474 35.1338 41.0964 35.1338 40.6699ZM41.7695 41.7393H42.707C42.6582 42.1885 42.5296 42.5905 42.3213 42.9453C42.113 43.3001 41.8184 43.5817 41.4375 43.79C41.0566 43.9951 40.5814 44.0977 40.0117 44.0977C39.5951 44.0977 39.2158 44.0195 38.874 43.8633C38.5355 43.707 38.2441 43.4857 38 43.1992C37.7559 42.9095 37.5671 42.5628 37.4336 42.1592C37.3034 41.7523 37.2383 41.2998 37.2383 40.8018V40.0938C37.2383 39.5957 37.3034 39.1449 37.4336 38.7412C37.5671 38.3343 37.7575 37.986 38.0049 37.6963C38.2555 37.4066 38.5566 37.1836 38.9082 37.0273C39.2598 36.8711 39.6553 36.793 40.0947 36.793C40.6318 36.793 41.0859 36.8939 41.457 37.0957C41.8281 37.2975 42.1162 37.5775 42.3213 37.9355C42.5296 38.2904 42.6582 38.7021 42.707 39.1709H41.7695C41.724 38.8389 41.6393 38.554 41.5156 38.3164C41.3919 38.0755 41.2161 37.89 40.9883 37.7598C40.7604 37.6296 40.4626 37.5645 40.0947 37.5645C39.779 37.5645 39.5007 37.6247 39.2598 37.7451C39.0221 37.8656 38.8219 38.0365 38.6592 38.2578C38.4997 38.4792 38.3792 38.7445 38.2979 39.0537C38.2165 39.363 38.1758 39.7064 38.1758 40.084V40.8018C38.1758 41.1501 38.2116 41.4772 38.2832 41.7832C38.3581 42.0892 38.4704 42.3577 38.6201 42.5889C38.7699 42.82 38.9603 43.0023 39.1914 43.1357C39.4225 43.266 39.696 43.3311 40.0117 43.3311C40.4121 43.3311 40.7311 43.2676 40.9688 43.1406C41.2064 43.0137 41.3854 42.8314 41.5059 42.5938C41.6296 42.3561 41.7174 42.0713 41.7695 41.7393ZM44.9336 36.8906V44H43.9912V36.8906H44.9336ZM49.2256 36.8906L46.2715 40.2061L44.6113 41.9297L44.4551 40.9238L45.7051 39.5469L48.0928 36.8906H49.2256ZM48.3174 44L45.6855 40.5332L46.2471 39.7861L49.4404 44H48.3174Z" fill="white"/>
</g>
<defs>
<clipPath id="clip0_207_2">
<rect width="70" height="70" fill="white"/>
</clipPath>
</defs>
</svg>
