<svg width="378" height="141" viewBox="0 0 378 141" fill="none" xmlns="http://www.w3.org/2000/svg">
<path d="M375.5 70.5C375.5 79.257 370.751 87.9029 361.494 96.0668C352.241 104.227 338.707 111.691 321.769 118.009C287.912 130.638 240.972 138.5 189 138.5C137.028 138.5 90.0877 130.638 56.2305 118.009C39.2926 111.691 25.7595 104.227 16.5061 96.0668C7.24904 87.9029 2.5 79.257 2.5 70.5C2.5 61.743 7.24904 53.0971 16.5061 44.9332C25.7595 36.7726 39.2926 29.3095 56.2305 22.9913C90.0877 10.3621 137.028 2.5 189 2.5C240.972 2.5 287.912 10.3621 321.769 22.9913C338.707 29.3095 352.241 36.7726 361.494 44.9332C370.751 53.0971 375.5 61.743 375.5 70.5Z" stroke="#DB4B54" stroke-width="5"/>
</svg>
