<svg xmlns="http://www.w3.org/2000/svg" width="256" height="256" viewBox="0 0 100 100"><rect width="100" height="100" rx="20" fill="#000000"></rect><path d="M41.56 31.98L46.28 31.98L46.28 56.15Q46.25 61.18 43.12 64.38Q39.98 67.58 34.61 67.97L34.61 67.97L33.36 68.02Q27.53 68.02 24.06 64.87Q20.59 61.72 20.54 56.20L20.54 56.20L20.54 31.98L25.18 31.98L25.18 56.05Q25.18 59.91 27.31 62.05Q29.43 64.18 33.36 64.18L33.36 64.18Q37.34 64.18 39.45 62.06Q41.56 59.94 41.56 56.08L41.56 56.08L41.56 31.98ZM74.43 67.53L66.71 53.15L58.36 53.15L58.36 67.53L53.65 67.53L53.65 31.98L65.42 31.98Q71.42 31.98 74.66 34.72Q77.89 37.45 77.89 42.68L77.89 42.68Q77.89 46.00 76.10 48.46Q74.30 50.93 71.11 52.15L71.11 52.15L79.46 67.24L79.46 67.53L74.43 67.53ZM58.36 35.84L58.36 49.32L65.56 49.32Q69.06 49.32 71.12 47.51Q73.18 45.70 73.18 42.68L73.18 42.68Q73.18 39.38 71.22 37.62Q69.25 35.86 65.54 35.84L65.54 35.84L58.36 35.84Z" fill="#ffffff"></path></svg>